<svg viewBox="0 0 100 100" fill="none" xmlns="http://www.w3.org/2000/svg">
<path fill-rule="evenodd" clip-rule="evenodd" d="M48.1279 17C51.4646 17 54.5045 18.9237 55.9414 21.9399L67.3885 46.0216C67.3885 46.0216 67.3885 46.0335 67.3766 46.0335C67.3766 46.0335 67.3766 46.0216 67.3885 46.0216C70.0721 42.7323 72.0196 38.8612 72.8508 34.7051C73.7889 30.0146 78.3488 26.9866 83.0392 27.9128C84.1543 28.1355 85.2146 28.5758 86.1595 29.2085C87.1044 29.8411 87.9154 30.6537 88.5461 31.5998C89.1769 32.546 89.615 33.6071 89.8356 34.7226C90.0561 35.8382 90.0548 36.9862 89.8315 38.1012C87.9078 47.7078 82.5405 56.2931 75.2732 62.5985L79.4293 71.3383C81.733 76.1831 79.3225 82.1085 74.2164 83.6285L74.062 83.676C73.302 83.8897 72.5183 83.9966 71.7583 83.9966C68.5166 83.9966 65.4173 82.1679 63.933 79.0568L60.24 71.2908L52.7233 55.4738L49.0303 47.7078C48.9501 47.5396 48.8238 47.3976 48.6662 47.2981C48.5086 47.1987 48.3261 47.1459 48.1397 47.1459C47.9534 47.1459 47.7708 47.1987 47.6132 47.2981C47.4556 47.3976 47.3294 47.5396 47.2491 47.7078L43.473 55.64C37.7138 54.4169 31.919 50.8545 28.6416 46.5203L40.3144 21.9636C41.0092 20.4784 42.1136 19.2223 43.4977 18.343C44.8818 17.4638 46.4881 16.9979 48.1279 17ZM15.4133 38.3506C19.8425 36.5575 24.8892 38.6949 26.6823 43.136C27.1454 44.2879 27.8104 45.416 28.6297 46.4966L28.6416 46.5084L29.0335 47.0072C29.0691 47.0547 29.1047 47.0903 29.1403 47.1378L29.2472 47.2684C29.3066 47.3278 29.3541 47.399 29.4135 47.4584C29.4253 47.4703 29.4372 47.4821 29.4372 47.494L29.4135 47.4584C29.6391 47.7315 29.8884 47.9928 30.1378 48.254C30.1497 48.2659 30.1497 48.2778 30.1616 48.2778C30.9809 49.1327 31.8953 49.9402 32.8808 50.6883C33.344 51.0445 33.8189 51.377 34.3058 51.7095C34.3533 51.7333 34.3889 51.7689 34.4364 51.7926C37.1795 53.5976 40.3262 54.9513 43.4611 55.6163C44.7911 55.9013 46.121 56.0556 47.4154 56.0675H47.5816C49.3034 56.0675 51.0253 55.8538 52.7115 55.45L60.2281 71.267C56.167 72.6326 51.904 73.3807 47.5816 73.3807C43.6868 73.3807 39.7444 72.7038 35.9208 71.4808L32.3227 79.0449C31.8203 80.1014 31.1088 81.045 30.2314 81.8187C29.3539 82.5925 28.3287 83.1803 27.2176 83.5465C26.1066 83.9128 24.9328 84.05 23.7672 83.9498C22.6016 83.8496 21.4685 83.5141 20.4363 82.9635C16.3039 80.7667 14.7958 75.5894 16.8026 71.362L20.745 63.0735C16.292 59.3093 12.7415 54.7375 10.6872 49.774L10.6278 49.6196C8.84663 45.1903 10.9841 40.1436 15.4133 38.3506Z" fill="black"/>
<path fill-rule="evenodd" clip-rule="evenodd" d="M48.1279 17C51.4646 17 54.5045 18.9237 55.9414 21.9399L67.3885 46.0216C67.3885 46.0216 67.3885 46.0335 67.3766 46.0335C67.3766 46.0335 67.3766 46.0216 67.3885 46.0216C70.0721 42.7323 72.0196 38.8612 72.8508 34.7051C73.7889 30.0146 78.3488 26.9866 83.0392 27.9128C84.1543 28.1355 85.2146 28.5758 86.1595 29.2085C87.1044 29.8411 87.9154 30.6537 88.5461 31.5998C89.1769 32.546 89.615 33.6071 89.8356 34.7226C90.0561 35.8382 90.0548 36.9862 89.8315 38.1012C87.9078 47.7078 82.5405 56.2931 75.2732 62.5985L79.4293 71.3383C81.733 76.1831 79.3225 82.1085 74.2164 83.6285L74.062 83.676C73.302 83.8897 72.5183 83.9966 71.7583 83.9966C68.5166 83.9966 65.4173 82.1679 63.933 79.0568L60.24 71.2908L52.7233 55.4738L49.0303 47.7078C48.9501 47.5396 48.8238 47.3976 48.6662 47.2981C48.5086 47.1987 48.3261 47.1459 48.1397 47.1459C47.9534 47.1459 47.7708 47.1987 47.6132 47.2981C47.4556 47.3976 47.3294 47.5396 47.2491 47.7078L43.473 55.64C37.7138 54.4169 31.919 50.8545 28.6416 46.5203L40.3144 21.9636C41.0092 20.4784 42.1136 19.2223 43.4977 18.343C44.8818 17.4638 46.4881 16.9979 48.1279 17ZM15.4133 38.3506C19.8425 36.5575 24.8892 38.6949 26.6823 43.136C27.1454 44.2879 27.8104 45.416 28.6297 46.4966L28.6416 46.5084L29.0335 47.0072C29.0691 47.0547 29.1047 47.0903 29.1403 47.1378L29.2472 47.2684C29.3066 47.3278 29.3541 47.399 29.4135 47.4584C29.4253 47.4703 29.4372 47.4821 29.4372 47.494L29.4135 47.4584C29.6391 47.7315 29.8884 47.9928 30.1378 48.254C30.1497 48.2659 30.1497 48.2778 30.1616 48.2778C30.9809 49.1327 31.8953 49.9402 32.8808 50.6883C33.344 51.0445 33.8189 51.377 34.3058 51.7095C34.3533 51.7333 34.3889 51.7689 34.4364 51.7926C37.1795 53.5976 40.3262 54.9513 43.4611 55.6163C44.7911 55.9013 46.121 56.0556 47.4154 56.0675H47.5816C49.3034 56.0675 51.0253 55.8538 52.7115 55.45L60.2281 71.267C56.167 72.6326 51.904 73.3807 47.5816 73.3807C43.6868 73.3807 39.7444 72.7038 35.9208 71.4808L32.3227 79.0449C31.8203 80.1014 31.1088 81.045 30.2314 81.8187C29.3539 82.5925 28.3287 83.1803 27.2176 83.5465C26.1066 83.9128 24.9328 84.05 23.7672 83.9498C22.6016 83.8496 21.4685 83.5141 20.4363 82.9635C16.3039 80.7667 14.7958 75.5894 16.8026 71.362L20.745 63.0735C16.292 59.3093 12.7415 54.7375 10.6872 49.774L10.6278 49.6196C8.84663 45.1903 10.9841 40.1436 15.4133 38.3506Z" fill="white"/>
<path d="M67.3885 46.0216L55.9414 21.9399C54.5045 18.9237 51.4646 17 48.1279 17C46.4881 16.9979 44.8818 17.4638 43.4977 18.343C42.1136 19.2223 41.0092 20.4784 40.3144 21.9636L28.6416 46.5203C31.919 50.8545 37.7138 54.4169 43.473 55.64L47.2491 47.7078C47.3294 47.5396 47.4556 47.3976 47.6132 47.2981C47.7708 47.1987 47.9534 47.1459 48.1397 47.1459C48.3261 47.1459 48.5086 47.1987 48.6662 47.2981C48.8238 47.3976 48.9501 47.5396 49.0303 47.7078L52.7233 55.4738M67.3885 46.0216C67.3885 46.0216 67.3885 46.0335 67.3766 46.0335C67.3766 46.0335 67.3766 46.0216 67.3885 46.0216ZM67.3885 46.0216C70.0721 42.7323 72.0196 38.8612 72.8508 34.7051C73.7889 30.0146 78.3488 26.9866 83.0392 27.9128C84.1543 28.1355 85.2146 28.5758 86.1595 29.2085C87.1044 29.8411 87.9154 30.6537 88.5461 31.5998C89.1769 32.546 89.615 33.6071 89.8356 34.7226C90.0561 35.8382 90.0548 36.9862 89.8315 38.1012C87.9078 47.7078 82.5405 56.2931 75.2732 62.5985L79.4293 71.3383C81.733 76.1831 79.3225 82.1085 74.2164 83.6285L74.062 83.676C73.302 83.8897 72.5183 83.9966 71.7583 83.9966C68.5166 83.9966 65.4173 82.1679 63.933 79.0568L60.24 71.2908L52.7233 55.4738M52.7233 55.4738H52.7471M29.4135 47.4584C29.3541 47.399 29.3066 47.3278 29.2472 47.2684L29.1403 47.1378C29.1047 47.0903 29.0691 47.0547 29.0335 47.0072L28.6416 46.5084L28.6297 46.4966C27.8104 45.416 27.1454 44.2879 26.6823 43.136C24.8892 38.6949 19.8425 36.5575 15.4133 38.3506C10.9841 40.1436 8.84663 45.1903 10.6278 49.6196L10.6872 49.774C12.7415 54.7375 16.292 59.3093 20.745 63.0735L16.8026 71.362C14.7958 75.5894 16.3039 80.7667 20.4363 82.9635C21.4685 83.5141 22.6016 83.8496 23.7672 83.9498C24.9328 84.05 26.1066 83.9128 27.2176 83.5465C28.3287 83.1803 29.3539 82.5925 30.2314 81.8187C31.1088 81.045 31.8203 80.1014 32.3227 79.0449L35.9208 71.4808C39.7444 72.7038 43.6868 73.3807 47.5816 73.3807C51.904 73.3807 56.167 72.6326 60.2281 71.267L52.7115 55.45C51.0253 55.8538 49.3034 56.0675 47.5816 56.0675H47.4154C46.121 56.0556 44.7911 55.9013 43.4611 55.6163C40.3262 54.9513 37.1795 53.5976 34.4364 51.7926C34.3889 51.7689 34.3533 51.7333 34.3058 51.7095C33.8189 51.377 33.344 51.0445 32.8808 50.6883C31.8953 49.9402 30.9809 49.1327 30.1616 48.2778C30.1497 48.2778 30.1497 48.2659 30.1378 48.254C29.8884 47.9928 29.6391 47.7315 29.4135 47.4584ZM29.4135 47.4584C29.4253 47.4703 29.4372 47.4821 29.4372 47.494L29.4135 47.4584Z" stroke="white" stroke-width="6.87" stroke-linejoin="round"/>
<path fill-rule="evenodd" clip-rule="evenodd" d="M35.9208 71.4807L43.4611 55.6162C37.702 54.3931 31.9071 50.8308 28.6297 46.4965L20.745 63.0735C25.1267 66.7902 30.3872 69.7114 35.9208 71.4807Z" fill="#1A007F"/>
<path fill-rule="evenodd" clip-rule="evenodd" d="M67.3885 46.0215C63.6005 50.6645 58.3401 54.1082 52.7115 55.45L60.2281 71.267C65.7142 69.4145 70.844 66.4221 75.2733 62.5866L67.3885 46.0215Z" fill="#4E000A"/>
<path fill-rule="evenodd" clip-rule="evenodd" d="M20.745 63.0735L16.8027 71.362C14.7958 75.5775 16.3039 80.7667 20.4363 82.9635C24.818 85.291 30.2091 83.4741 32.3228 79.0449L35.9208 71.4808C30.3646 69.6896 25.2102 66.8341 20.745 63.0735Z" fill="#1A007F"/>
<path fill-rule="evenodd" clip-rule="evenodd" d="M83.0392 27.9247C81.9242 27.7014 80.7762 27.7001 79.6607 27.9206C78.5451 28.1412 77.484 28.5793 76.5379 29.2101C75.5917 29.8409 74.7791 30.6519 74.1465 31.5967C73.5138 32.5416 73.0736 33.6019 72.8508 34.717C72.0196 38.8731 70.0722 42.7442 67.3885 46.0335L75.2614 62.6105C82.5286 56.305 87.896 47.7197 89.8196 38.1131C90.7577 33.4108 87.7178 28.8509 83.0392 27.9247Z" fill="#FF9396"/>
<path fill-rule="evenodd" clip-rule="evenodd" d="M52.7115 55.45C51.0253 55.8537 49.3034 56.0675 47.5816 56.0675C46.2398 56.0675 44.8505 55.9131 43.4611 55.6162C37.7019 54.3931 31.9071 50.8308 28.6297 46.4965C27.8104 45.4159 27.1454 44.2878 26.6823 43.136C24.8892 38.7068 19.8425 36.5693 15.4133 38.3505C10.9841 40.1436 8.84663 45.1903 10.6278 49.6195C12.6584 54.6544 16.2445 59.2736 20.745 63.0735C25.2059 66.8338 30.3564 69.6894 35.9089 71.4807C39.7206 72.7038 43.6749 73.3807 47.5698 73.3807C51.8921 73.3807 56.1551 72.6326 60.2162 71.267L52.7115 55.45Z" fill="#002DC8"/>
<path fill-rule="evenodd" clip-rule="evenodd" d="M79.4175 71.3264L75.2614 62.5867L67.3885 46.0216L67.3766 46.0334C67.3766 46.0334 67.3766 46.0216 67.3885 46.0216L55.9414 21.9398C55.2387 20.4624 54.1318 19.2143 52.7489 18.34C51.3661 17.4658 49.7639 17.0011 48.1279 17C44.7911 17 41.7512 18.9237 40.3144 21.9398L28.6416 46.4966C31.919 50.8308 37.7138 54.3932 43.473 55.6163L47.2491 47.684C47.6054 46.9359 48.6741 46.9359 49.0303 47.684L52.7233 55.45L60.24 71.267L63.933 79.033C64.6351 80.5133 65.7435 81.7636 67.129 82.6382C68.5145 83.5128 70.1199 83.9757 71.7583 83.9729C72.5302 83.9729 73.302 83.866 74.062 83.6522C79.275 82.2154 81.7449 76.2187 79.4175 71.3264Z" fill="#FF536A"/>
<path fill-rule="evenodd" clip-rule="evenodd" d="M35.9208 71.4807L43.4611 55.6162C37.702 54.3931 31.9071 50.8308 28.6297 46.4965L20.745 63.0735C25.1267 66.7902 30.3872 69.7114 35.9208 71.4807Z" fill="#1A007F"/>
<path fill-rule="evenodd" clip-rule="evenodd" d="M67.3885 46.0215C63.6005 50.6645 58.3401 54.1082 52.7115 55.45L60.2281 71.267C65.7142 69.4145 70.844 66.4221 75.2733 62.5866L67.3885 46.0215Z" fill="#4E000A"/>
<path fill-rule="evenodd" clip-rule="evenodd" d="M20.745 63.0735L16.8027 71.362C14.7958 75.5775 16.3039 80.7667 20.4363 82.9635C24.818 85.291 30.2091 83.4741 32.3228 79.0449L35.9208 71.4808C30.3646 69.6896 25.2102 66.8341 20.745 63.0735Z" fill="#1A007F"/>
<path fill-rule="evenodd" clip-rule="evenodd" d="M83.0392 27.9247C81.9243 27.7015 80.7762 27.7001 79.6607 27.9206C78.5451 28.1412 77.484 28.5793 76.5379 29.2101C75.5917 29.8409 74.7791 30.6518 74.1465 31.5967C73.5139 32.5416 73.0736 33.6019 72.8508 34.717C72.0196 38.8731 70.0722 42.7442 67.3885 46.0335L75.2614 62.6105C82.5286 56.305 87.896 47.7197 89.8196 38.1131C90.7577 33.4108 87.7178 28.8509 83.0392 27.9247Z" fill="#FF9396"/>
<path fill-rule="evenodd" clip-rule="evenodd" d="M52.7115 55.45C51.0253 55.8537 49.3034 56.0675 47.5816 56.0675C46.2398 56.0675 44.8505 55.9131 43.4611 55.6162C37.7019 54.3931 31.9071 50.8308 28.6297 46.4965C27.8104 45.4159 27.1454 44.2878 26.6823 43.136C24.8892 38.7068 19.8425 36.5693 15.4133 38.3505C10.9841 40.1436 8.84662 45.1903 10.6278 49.6195C12.6584 54.6544 16.2445 59.2736 20.745 63.0735C25.2059 66.8338 30.3564 69.6894 35.9089 71.4807C39.7206 72.7038 43.6749 73.3807 47.5698 73.3807C51.8921 73.3807 56.1551 72.6326 60.2162 71.267L52.7115 55.45Z" fill="#002DC8"/>
<path fill-rule="evenodd" clip-rule="evenodd" d="M79.4175 71.3264L75.2614 62.5867L67.3885 46.0216L67.3767 46.0334C67.3767 46.0334 67.3767 46.0216 67.3885 46.0216L55.9414 21.9398C55.2387 20.4624 54.1318 19.2143 52.749 18.34C51.3662 17.4658 49.7639 17.0011 48.1279 17C44.7911 17 41.7512 18.9237 40.3144 21.9398L28.6417 46.4966C31.9191 50.8308 37.7139 54.3932 43.4731 55.6163L47.2492 47.684C47.6054 46.9359 48.6741 46.9359 49.0304 47.684L52.7234 55.45L60.24 71.267L63.933 79.033C64.6352 80.5133 65.7436 81.7636 67.1291 82.6382C68.5145 83.5128 70.12 83.9757 71.7584 83.9729C72.5302 83.9729 73.3021 83.866 74.0621 83.6522C79.275 82.2154 81.745 76.2187 79.4175 71.3264Z" fill="#FF536A"/>
</svg>
