<svg viewBox="0 0 100 100" fill="none" xmlns="http://www.w3.org/2000/svg">
<path d="M89.8093 76.0888C89.7306 76.0288 89.6393 75.9875 89.5424 75.968C89.4455 75.9485 89.3454 75.9513 89.2497 75.9762C85.0495 69.7758 79.6739 63.9092 74.521 58.2116L73.6806 57.2623C73.6783 57.1585 73.6384 57.0591 73.5682 56.9828C73.4702 56.8896 73.3569 56.8141 73.2333 56.7595L73.0648 56.5926L72.9525 56.48C72.784 56.1441 72.3908 55.9209 71.9997 56.1441C70.4312 56.9285 68.9769 58.101 67.5749 59.2172C65.7295 60.6692 63.8802 62.1233 62.1431 63.7423C61.433 64.3748 60.7774 65.0665 60.1835 65.8097C59.9026 66.1999 60.1273 66.5358 60.4643 66.7027C59.2307 67.9315 57.9971 69.1623 56.7676 70.4455C56.655 70.5671 56.5945 70.7281 56.5991 70.894C56.5991 71.0609 56.7114 71.2278 56.8217 71.2841L59.008 72.9594V73.0157C62.087 76.0888 67.5207 80.278 73.2894 84.8032C74.1279 85.4749 75.0245 86.1446 75.8649 86.8143C76.256 87.2628 76.6472 87.7656 76.9842 88.2121C77.1526 88.4333 77.5458 88.4916 77.7684 88.3227C77.8807 88.4353 78.0492 88.5459 78.1616 88.6585C78.2634 88.7207 78.3779 88.7592 78.4965 88.7712C78.5842 88.7758 78.6716 88.7577 78.7503 88.7186C78.829 88.6795 78.8964 88.6207 78.9458 88.5479C79.0074 88.4457 79.0451 88.3309 79.0562 88.2121C79.1143 88.2121 79.1123 88.2684 79.1685 88.2684C79.3345 88.2729 79.4957 88.2123 79.6178 88.0995L89.8113 76.9817C89.871 76.9238 89.9185 76.8544 89.9509 76.7777C89.9833 76.701 90 76.6186 90 76.5353C90 76.452 89.9833 76.3695 89.9509 76.2928C89.9185 76.2161 89.869 76.1467 89.8093 76.0888ZM60.4643 72.2334C60.5205 72.3403 60.596 72.4357 60.6869 72.515C61.8623 73.5205 63.0939 74.5261 64.3836 75.6423L59.2307 71.7306L58.7272 71.3968C58.6149 71.3404 58.5026 71.2278 58.3903 71.1735L57.9991 70.8376L58.1114 70.725L58.2218 70.6144L58.4464 70.3912C60.1835 68.6596 63.1521 65.7534 64.6644 64.3014C63.0397 65.9204 59.7903 70.6707 60.4623 72.2334H60.4643ZM78.0492 86.0903L73.7929 82.8483C72.1063 81.1017 70.3498 79.4243 68.5276 77.8204C70.8243 79.552 72.784 81.0604 73.0648 81.3399C75.3053 83.2948 75.191 82.9609 76.7053 84.2461L78.5527 85.5855C78.4142 85.7802 78.244 85.9522 78.0492 86.0903ZM79.1685 86.9269L79.0562 86.8706C79.2246 86.76 79.3931 86.6474 79.5616 86.4805L79.1685 86.9269ZM11.9617 21.5079C12.072 22.2339 12.2425 22.9599 12.3528 23.6317C13.0248 27.3181 13.6967 30.6707 14.9283 33.1847L15.4337 35.0832C15.6022 35.8092 15.881 36.7042 16.1619 36.9274C19.0181 39.4414 23.3868 43.1822 28.0904 46.76C28.1944 46.8414 28.3226 46.8856 28.4545 46.8856C28.5864 46.8856 28.7145 46.8414 28.8185 46.76C28.8185 46.76 28.8185 46.8143 28.8747 46.8143C28.9241 46.8694 28.9849 46.913 29.0527 46.9422C29.1206 46.9713 29.194 46.9854 29.2678 46.9833C29.4331 46.9872 29.5935 46.9266 29.7151 46.8143C35.7085 40.1674 40.1875 34.693 43.3808 30.1116C43.6054 29.8884 43.6616 29.5525 43.6616 29.273C43.8842 29.0497 44.0527 28.7702 44.2774 28.6032C44.5 28.38 44.5 27.9878 44.2774 27.8189L44.2212 27.7646C44.2212 27.654 44.165 27.485 44.0527 27.4287C42.6526 26.0893 41.6457 25.14 40.5806 24.1344C38.7313 22.4008 36.8278 20.6149 32.7961 16.5926L32.7399 16.5363C32.6837 16.48 32.6276 16.4237 32.5153 16.4237C31.396 16.0335 29.0994 15.6413 26.2431 15.1385C21.9867 14.4145 16.216 13.4089 11.0089 11.8422C11.0089 11.8422 10.6719 11.8422 10.6158 11.8985L10.4493 12.0675C10.3931 12.1218 10.337 12.1781 10 12.2887C10.0562 12.6246 10.0562 12.8478 10.1685 13.24C10.1685 13.3506 10.3931 14.2456 10.3931 14.3562L11.9617 21.5079ZM43.0438 28.1005L42.3718 27.4287C42.5403 27.654 42.765 27.8209 43.0438 28.1005ZM35.9312 37.4845L35.8188 37.5972C35.8188 37.5409 35.875 37.4845 35.9312 37.4845ZM31.8433 17.3729C32.1803 17.7088 33.5803 19.0502 33.9153 19.3298C32.4591 18.6581 28.8205 16.9828 27.1377 16.4237C28.8185 16.7595 31.1152 17.0954 31.8433 17.3729ZM12.6336 14.5814C13.4741 16.0335 14.146 21.0614 14.818 25.9767C14.4248 24.412 14.146 22.8493 13.809 21.3952C13.3056 18.827 12.8001 16.5363 12.1282 14.5251C12.2405 14.5251 12.409 14.5251 12.6336 14.5814ZM12.2967 13.4069C12.072 13.4069 11.8494 13.3506 11.6809 13.3506C11.6809 13.2963 11.6809 13.24 11.6247 13.24C11.9055 13.24 12.072 13.2963 12.2967 13.4069ZM10.1123 13.8534C10.1123 13.7991 10.1123 13.7991 10.1123 13.8534ZM88.9127 12.6246C88.9689 12.4033 87.7935 11.3978 88.1846 11.3394C89.0271 11.2851 89.0271 10 88.1846 10C87.0654 10.0563 85.89 10.3339 84.8249 10.5028C82.8652 10.893 80.8494 11.2851 78.8877 11.7296C74.4648 12.6809 70.0962 13.6865 65.7275 14.861C64.3836 15.2511 62.8712 15.5307 61.5835 16.2004C61.1342 16.4237 61.1904 16.8701 61.415 17.1497C61.3027 17.206 61.2465 17.206 61.1342 17.2623C60.7431 17.3186 60.4061 17.3749 60.015 17.4292C59.678 17.4855 59.5095 17.7651 59.5657 18.101C59.5657 18.1553 59.6218 18.2679 59.6218 18.3222C57.269 21.4516 54.6374 24.7479 51.7811 28.2674C48.981 31.5074 46.0124 34.9163 43.0438 38.4358C33.5783 49.4972 22.8813 62.067 11.0651 73.1284C11.0121 73.1787 10.9699 73.2394 10.9411 73.3066C10.9122 73.3739 10.8973 73.4463 10.8973 73.5195C10.8973 73.5927 10.9122 73.6652 10.9411 73.7324C10.9699 73.7997 11.0121 73.8603 11.0651 73.9107C11.1212 73.965 11.1774 74.0213 11.2336 74.0213C11.0651 74.1903 10.8966 74.3029 10.7281 74.4678C10.6158 74.5804 10.5596 74.691 10.5596 74.8037C10.4721 74.8853 10.397 74.9795 10.337 75.0832C10.1123 75.3064 10.1123 75.6966 10.3931 75.8656C10.6158 76.0868 11.0089 76.0868 11.1754 75.8092C11.2336 75.7529 11.2336 75.6966 11.2877 75.6966C11.4526 75.5351 11.674 75.4446 11.9045 75.4446C12.135 75.4446 12.3564 75.5351 12.5213 75.6966C13.1933 76.4247 13.8652 77.1507 14.481 77.7641L13.0809 76.5916C12.8563 76.3683 12.4651 76.4247 12.2987 76.6479C12.072 76.8691 12.1282 77.2613 12.3528 77.4302L27.25 89.8874C27.3623 90 27.4746 90 27.6431 90C27.8116 90 27.924 89.9437 28.0343 89.8311L28.3712 89.4972C28.4274 89.5515 28.5377 89.5515 28.5939 89.5515C28.7624 89.5515 28.8747 89.4972 28.987 89.3846C49.1495 69.1623 65.3926 53.9097 83.9864 40.278C84.1529 40.1674 84.2091 39.9442 84.2091 39.7753C84.4337 39.7753 84.6022 39.6083 84.7126 39.3851C88.1305 28.9391 88.8024 19.6636 89.025 15.0842V15.0279C89.025 14.9716 89.0812 14.9153 89.0812 14.861C89.1374 14.7484 89.1374 14.692 89.1374 14.692C89.2895 13.997 89.2093 13.2711 88.9127 12.6246ZM52.8462 29.0497C53.7408 28.0441 54.6374 26.9823 55.534 26.033C49.7653 33.6312 40.1895 45.3059 26.6342 59.2172C35.875 48.9944 45.1719 38.4358 52.8462 29.0497ZM27.1377 88.3227C27.0835 88.2664 27.0835 88.2664 27.1377 88.2664V88.3227ZM35.4819 81.1167C35.9312 80.6139 36.3805 80.1674 36.8839 79.6646C36.8839 79.6646 36.8839 79.7189 36.9401 79.7189C36.4346 80.1674 35.9873 80.6139 35.4839 81.1167H35.4819ZM37.7805 78.8823C38.0613 78.6007 38.3401 78.2106 38.6751 77.8767L38.7313 77.8204C42.0369 74.4135 45.4528 71.0046 48.9248 67.5413L48.981 67.485C49.8214 66.8153 50.8283 66.0893 51.7249 65.4176C47.02 69.8463 42.3715 74.3349 37.7805 78.8823ZM59.5095 22.9599C57.6621 25.3633 55.5901 28.5469 53.8531 31.0609C48.3652 38.9929 30.7221 58.3785 30.3309 58.7144C24.9683 63.8506 19.5914 68.9717 14.2002 74.0776L13.8652 74.4135C13.5844 74.0776 13.5844 73.5748 13.9214 73.2953C38.8416 49.8874 53.9654 30.3912 60.0711 21.8437C59.9026 22.2339 59.7903 22.5678 59.5095 22.9599ZM69.1976 34.4135C66.9591 33.1264 65.896 31.1152 66.5098 29.1624L66.6783 28.4906C66.7344 28.3237 66.8468 28.1005 66.9591 27.9335C67.5749 26.9279 68.4715 26.0893 69.4804 25.5865C69.5346 25.5865 69.5907 25.5865 69.6469 25.5302C69.5907 25.4176 69.5907 25.2506 69.5907 25.0837C69.6469 24.7479 69.8715 24.5246 70.2627 24.5246C70.9346 24.5246 73.0086 25.14 73.7929 25.8097C74.0155 25.9767 74.2402 26.1999 74.4649 26.4231C74.7457 26.759 75.193 27.3181 75.4156 27.7646C75.5279 27.8209 75.6402 28.38 75.8087 28.6596C75.9211 29.106 76.0314 29.6088 75.9772 30.0553C75.9211 30.1116 75.9772 30.4455 75.9211 30.4455C75.8229 31.1775 75.575 31.8814 75.193 32.5129C75.1368 32.5693 75.1368 32.6256 75.0806 32.6819L75.0245 32.7362C74.7437 33.1847 74.3525 33.5748 73.9614 33.8544C72.6717 34.7473 71.2154 35.0269 69.7592 34.6367C69.7592 34.6367 69.3681 34.4678 69.1976 34.4135ZM85.553 32.7362C85.0453 34.8836 84.4477 37.0086 83.7618 39.1055C83.7618 39.1618 83.7056 39.2725 83.7618 39.3288C83.6495 39.3288 83.5933 39.3851 83.481 39.4414C79.0562 42.6794 74.7437 46.0883 70.4312 49.5535C74.1279 46.2552 77.8246 42.9046 81.6898 39.6083C82.809 38.6027 83.5933 37.3176 83.8159 35.8656L84.3776 32.5129V32.4023C84.6584 31.7306 85.7215 32.0102 85.553 32.7362Z" fill="#6965DB"/>
</svg>
