<svg viewBox="0 0 100 100" fill="none" xmlns="http://www.w3.org/2000/svg">
<path d="M57.9589 76.0896C55.7725 74.4361 53.5204 72.7248 47.6671 71.1609C41.8136 69.5972 38.9864 69.9517 36.2825 70.2987C35.5079 70.3944 34.7144 70.4851 33.8694 70.5419C31.2253 72.3982 29.4147 75.4454 29.0267 78.772C28.8003 80.6688 30.0359 82.472 31.9053 82.9713C32.0942 83.0217 32.2881 83.0535 32.5007 83.0901C34.4836 83.3172 36.1248 83.0091 37.4223 82.5485C37.7144 84.6241 38.6634 87.1174 41.2511 89.1608C41.6675 89.4939 42.1333 89.7193 42.6619 89.8605C43.1906 90.0017 43.7068 90.0387 44.2345 89.9578C47.4953 89.4972 49.5725 87.7921 50.8662 86.1401C51.7591 87.1858 53.0308 88.252 54.8569 89.0627C55.0357 89.1508 55.2246 89.2013 55.4323 89.2568C57.3016 89.7561 59.2758 88.8105 60.0309 87.055C61.3443 83.9758 61.3233 80.439 59.9643 77.5134C59.2232 77.0328 58.6004 76.5639 57.9589 76.0896Z" fill="#73E5BF"/>
<path d="M63.3022 78.3268C59.3766 77.37 57.3563 75.9736 55.3849 74.6276C53.1005 73.0516 50.7478 71.4205 44.6325 69.93C38.5174 68.4397 35.5635 68.7775 32.7386 69.1082C30.3112 69.3819 27.7943 69.6724 23.8489 68.7109C19.371 67.6195 16.2359 65.7014 14.5175 62.9941C12.799 60.2868 12.5403 56.8582 13.7403 52.785C16.8642 42.1804 24.2143 31.0097 33.3993 22.9403C43.1837 14.3437 53.4392 10.5353 61.547 12.5114C69.6547 14.4874 76.4428 22.4498 80.1908 34.3445C83.7044 45.5283 83.9346 58.5273 80.8107 69.1318C79.611 73.2051 77.5022 76.0565 74.5258 77.6197C71.5493 79.1828 67.78 79.4181 63.3022 78.3268Z" fill="#FF4070"/>
<path d="M43.1658 43.1564C42.2956 42.8969 40.5553 42.3779 39.3894 47.2213C38.2237 52.0649 39.964 52.5841 40.8342 52.8436C41.7043 53.1031 43.4448 53.6223 44.6105 48.7787C45.7764 43.9351 44.0361 43.4161 43.1658 43.1564Z" fill="#1E2624"/>
<path d="M61.1658 49.1565C60.2956 48.8968 58.5553 48.3778 57.3894 53.2212C56.2237 58.0649 57.964 58.5841 58.8342 58.8436C59.7043 59.1031 61.4448 59.6223 62.6105 54.7787C63.7764 49.9352 62.0361 49.416 61.1658 49.1565Z" fill="#1E2624"/>
<path d="M56.5543 32.1407C55.3943 31.9072 53.0736 31.4399 51.5193 35.7991C49.9648 40.1584 52.2854 40.6255 53.4455 40.8593C54.6059 41.0928 56.9263 41.5601 58.4808 37.2008C60.0351 32.8416 57.7147 32.3745 56.5543 32.1407Z" fill="#1E2624"/>
<path d="M86.9828 51.6112C86.8425 45.5258 85.8377 39.3638 84.1043 33.8156C82.3055 28.0579 79.7174 22.9766 76.6078 19.1012C72.9799 14.6154 68.7534 11.742 64.0453 10.5869C59.3372 9.43185 54.1078 9.98544 48.5361 12.2142C43.7268 14.1468 38.7107 17.3625 34.0087 21.5252C29.4779 25.5365 25.2427 30.4131 21.7978 35.6188C18.1806 41.053 15.4273 46.8536 13.8069 52.391C12.466 56.9724 12.7948 60.9001 14.8045 64.061C16.7894 67.235 20.34 69.4593 25.3436 70.6871C26.171 70.8899 26.93 71.0375 27.6552 71.1575C26.3168 72.917 25.4327 75.0004 25.1552 77.1749C24.7982 79.9097 26.7391 82.5126 29.6546 83.2278C29.9501 83.3003 30.2706 83.3595 30.5818 83.378C31.9992 83.5131 33.3012 83.4652 34.4272 83.2968C35.189 85.4556 36.6238 87.3348 38.6647 88.802C39.3288 89.2743 40.0548 89.607 40.8624 89.8052C41.6702 90.0035 42.5003 90.0525 43.3136 89.9426C45.8823 89.6062 48.1511 88.6357 49.9897 87.1148C50.8928 87.781 51.9744 88.4137 53.2754 88.9456C53.5604 89.0542 53.8704 89.1495 54.1659 89.222C57.0814 89.9372 60.1835 88.5719 61.3678 86.0399C62.3151 84.0298 62.6871 81.8205 62.4889 79.6842C63.1821 79.9122 63.9202 80.1319 64.7476 80.335C69.7512 81.5625 74.0408 81.2617 77.493 79.4215C80.9544 77.6222 83.3839 74.3711 84.7246 69.7897C86.345 64.2524 87.1284 57.9683 86.9828 51.6112ZM57.6152 84.5781C57.2133 85.446 56.1816 85.8694 55.2163 85.6326C55.1177 85.6084 55.0193 85.5842 54.9261 85.5421C50.6194 83.8089 49.897 80.5772 49.897 80.5772C49.897 80.5772 48.4561 85.5013 42.7233 86.26C42.4408 86.2875 42.1691 86.2788 41.9128 86.2158C41.6567 86.1531 41.3968 86.0313 41.1868 85.8831C36.6365 82.6016 38.0774 77.6775 38.0774 77.6775C38.0774 77.6775 35.6872 80.1455 31.011 79.6748C30.9074 79.6688 30.8087 79.6446 30.7103 79.6204C29.7451 79.3836 29.0826 78.5444 29.2086 77.6087C29.5642 74.9508 31.0846 72.714 32.9702 71.3207C33.6837 71.2638 34.3577 71.1973 34.9922 71.121C37.7489 70.7919 40.3662 70.5061 46.0988 71.9125C51.8311 73.3189 53.9167 74.778 56.1494 76.3115C56.677 76.673 57.1994 77.0526 57.7915 77.4105C58.6635 79.4803 58.7783 82.1182 57.6152 84.5781ZM65.798 76.7455C57.9184 74.8124 58.974 71.205 47.1544 68.3052C35.3348 65.4055 34.2791 69.0128 26.3993 67.0795C18.5196 65.1464 15.6353 60.5725 17.7466 53.3575C24.0809 31.7132 47.2301 10.3279 62.9896 14.1943C78.7492 18.0607 87.1188 47.1788 80.7846 68.8231C78.6733 76.0381 73.6777 78.6789 65.798 76.7455Z" fill="#1E2624"/>
</svg>
