<svg width="100%" height="100%" viewBox="0 0 94 43" fill="none" xmlns="http://www.w3.org/2000/svg"><path d="M47.224 34.4858C46.2227 33.7258 45.1913 32.9392 42.5107 32.2204C39.83 31.5017 38.5352 31.6646 37.2969 31.8241C36.9422 31.8681 36.5788 31.9098 36.1918 31.9359C34.9809 32.7891 34.1517 34.1897 33.974 35.7187C33.8703 36.5905 34.4362 37.4193 35.2923 37.6488C35.3788 37.672 35.4676 37.6866 35.565 37.7034C36.4731 37.8078 37.2247 37.6662 37.8189 37.4545C37.9527 38.4085 38.3873 39.5545 39.5724 40.4937C39.7631 40.6468 39.9764 40.7504 40.2185 40.8153C40.4606 40.8802 40.697 40.8972 40.9387 40.86C42.432 40.6483 43.3833 39.8646 43.9758 39.1053C44.3847 39.5859 44.9671 40.076 45.8034 40.4486C45.8853 40.4891 45.9718 40.5123 46.0669 40.5378C46.923 40.7673 47.8271 40.3327 48.1729 39.5258C48.7744 38.1105 48.7648 36.4849 48.1424 35.1402C47.803 34.9193 47.5178 34.7038 47.224 34.4858Z" fill="#73E5BF"></path><path d="M86.8381 33.8625C85.0566 33.8625 84.027 33.4414 83.0244 33.0383C81.8606 32.5635 80.661 32.0708 77.8857 32.0708C75.1105 32.0708 73.9019 32.5635 72.747 33.0383C71.7533 33.4414 70.7238 33.8625 68.9333 33.8625C66.9011 33.8625 65.3345 33.325 64.2691 32.2589C63.2038 31.1929 62.6667 29.6252 62.6667 27.5916C62.6667 27.5289 62.6756 21.6344 63.5709 15.8114C64.8421 7.57873 67.2413 3.40414 70.7238 3.40414C72.8813 3.40414 74.0272 4.54185 74.9404 5.4556C75.7909 6.3156 76.4623 6.98748 77.8857 6.98748C79.3091 6.98748 79.9806 6.3156 80.831 5.4556C81.7442 4.54185 82.8901 3.40414 85.0476 3.40414C88.5301 3.40414 90.9293 7.57873 92.2006 15.8114C93.0958 21.6344 93.1048 27.5379 93.1048 27.5916C93.1048 29.6252 92.5676 31.1929 91.5023 32.2589C90.4369 33.325 88.8703 33.8625 86.8381 33.8625Z" fill="#FF4070"></path><path d="M49.4703 35.6622C47.7495 35.2008 46.8639 34.5274 45.9997 33.8783C44.9983 33.1183 43.967 32.3317 41.2863 31.6129C38.6057 30.8942 37.3108 31.0571 36.0725 31.2166C35.0084 31.3486 33.9051 31.4887 32.1756 31.025C30.2127 30.4987 28.8384 29.5737 28.0851 28.2681C27.3318 26.9625 27.2184 25.3091 27.7444 23.3448C29.1138 18.2308 32.3358 12.8438 36.3621 8.95235C40.6512 4.80672 45.1468 2.97013 48.7009 3.92307C52.255 4.87601 55.2306 8.71585 56.8736 14.452C58.4138 19.8453 58.5147 26.114 57.1453 31.228C56.6194 33.1923 55.695 34.5674 54.3903 35.3212C53.0855 36.075 51.4332 36.1885 49.4703 35.6622Z" fill="#FF4070"></path><path d="M13.4286 33.8625C10.4385 33.8625 7.39467 32.8591 5.05809 31.1033C2.37238 29.0966 0.895237 26.2569 0.895237 23.1125C0.895237 20.631 2.30076 17.7375 6.26667 17.7375C8.45105 17.7375 8.95238 17.2358 8.95238 15.05V11.4666C8.95238 5.58998 11.1368 3.40414 17.0095 3.40414C22.8823 3.40414 25.0667 5.58998 25.0667 11.4666V22.2166C25.0667 26.0329 24.073 28.9533 22.1213 30.9152C20.1608 32.8681 17.2423 33.8625 13.4286 33.8625Z" fill="#FF4070"></path><path d="M40.523 19.3358C40.0906 19.2199 39.2259 18.9881 38.6466 21.1513C38.0674 23.3146 38.9321 23.5465 39.3645 23.6624C39.7968 23.7783 40.6616 24.0102 41.2408 21.8469C41.8201 19.6836 40.9554 19.4518 40.523 19.3358Z" fill="#1E2624"></path><path d="M48.3056 21.4226C47.8732 21.3066 47.0085 21.0748 46.4292 23.238C45.85 25.4013 46.7147 25.6332 47.1471 25.7491C47.5794 25.865 48.4442 26.0969 49.0234 23.9336C49.6027 21.7704 48.738 21.5385 48.3056 21.4226Z" fill="#1E2624"></path><path d="M46.2679 13.4567C45.8356 13.3408 44.9708 13.1089 44.3916 15.2722C43.8123 17.4355 44.6771 17.6673 45.1094 17.7833C45.5418 17.8992 46.4065 18.1311 46.9858 15.9678C47.565 13.8045 46.7003 13.5727 46.2679 13.4567Z" fill="#1E2624"></path><path d="M85.0476 4.3C92.2095 4.3 92.2095 27.5917 92.2095 27.5917C92.2095 31.175 90.419 32.9667 86.8381 32.9667C83.2571 32.9667 83.2571 31.175 77.8857 31.175C72.5143 31.175 72.5143 32.9667 68.9333 32.9667C65.3524 32.9667 63.5619 31.175 63.5619 27.5917C63.5619 27.5917 63.5619 4.3 70.7238 4.3C74.3048 4.3 74.3048 7.88333 77.8857 7.88333C81.4667 7.88333 81.4667 4.3 85.0476 4.3ZM85.0476 2.50833C82.5141 2.50833 81.1802 3.84312 80.2044 4.82854C79.327 5.70646 78.8884 6.09166 77.8857 6.09166C76.883 6.09166 76.4444 5.70646 75.567 4.82854C74.5912 3.84312 73.2573 2.50833 70.7238 2.50833C69.3989 2.50833 68.1992 3.01 67.1429 3.98646C66.3103 4.75687 65.5941 5.805 64.9585 7.18458C64.0006 9.27187 63.2307 12.1206 62.6846 15.6681C61.7804 21.5627 61.7714 27.3498 61.7714 27.5917C61.7714 29.8671 62.3981 31.6498 63.6425 32.886C64.8779 34.1312 66.6594 34.7583 68.9333 34.7583C70.8939 34.7583 72.0577 34.2835 73.0783 33.8625C74.2063 33.3967 75.2806 32.9667 77.8857 32.9667C80.4909 32.9667 81.5562 33.4056 82.6931 33.8625C83.7227 34.2835 84.8775 34.7583 86.8381 34.7583C89.112 34.7583 90.8935 34.1312 92.129 32.886C93.3644 31.6498 94 29.8671 94 27.5917C94 27.3498 93.9911 21.5627 93.0869 15.6771C92.5408 12.1296 91.7798 9.27187 90.813 7.19354C90.1773 5.81396 89.4611 4.76583 88.6286 3.99541C87.5722 3.01 86.3726 2.50833 85.0476 2.50833Z" fill="#1E2624"></path><path d="M59.9189 22.8597C59.8573 19.9403 59.4162 16.9841 58.6553 14.3224C57.8657 11.5602 56.7296 9.1225 55.3646 7.26331C53.7721 5.11129 51.9168 3.73279 49.8501 3.17865C47.7834 2.6245 45.4879 2.89008 43.0421 3.95933C40.931 4.88644 38.7291 6.42916 36.6651 8.42619C34.6762 10.3506 32.8171 12.6901 31.3049 15.1875C29.7171 17.7945 28.5085 20.5773 27.7972 23.2338C27.2086 25.4317 27.3529 27.316 28.2351 28.8324C29.1064 30.3551 30.665 31.4222 32.8614 32.0112C33.2246 32.1085 33.5578 32.1793 33.8761 32.2369C33.2886 33.081 32.9005 34.0805 32.7787 35.1237C32.622 36.4357 33.474 37.6844 34.7538 38.0275C34.8835 38.0623 35.0242 38.0907 35.1608 38.0996C35.783 38.1644 36.3545 38.1414 36.8488 38.0606C37.1832 39.0963 37.813 39.9978 38.7089 40.7017C39.0004 40.9283 39.3191 41.0879 39.6736 41.183C40.0282 41.2781 40.3926 41.3016 40.7496 41.2489C41.8772 41.0875 42.8731 40.6219 43.6802 39.8923C44.0766 40.2119 44.5514 40.5154 45.1225 40.7706C45.2476 40.8227 45.3837 40.8684 45.5134 40.9032C46.7932 41.2463 48.1549 40.5913 48.6748 39.3766C49.0906 38.4123 49.2539 37.3524 49.1669 36.3275C49.4712 36.4369 49.7952 36.5423 50.1584 36.6397C52.3548 37.2286 54.2378 37.0843 55.7532 36.2015C57.2726 35.3383 58.3391 33.7786 58.9276 31.5807C59.6389 28.9242 59.9828 25.9095 59.9189 22.8597ZM47.0275 38.6753C46.8511 39.0917 46.3982 39.2948 45.9745 39.1812C45.9312 39.1696 45.888 39.158 45.8471 39.1378C43.9566 38.3063 43.6395 36.7559 43.6395 36.7559C43.6395 36.7559 43.007 39.1182 40.4905 39.4822C40.3665 39.4954 40.2472 39.4912 40.1347 39.461C40.0223 39.4309 39.9082 39.3725 39.816 39.3014C37.8186 37.7271 38.4511 35.3648 38.4511 35.3648C38.4511 35.3648 37.4019 36.5488 35.3492 36.323C35.3037 36.3201 35.2604 36.3085 35.2172 36.2969C34.7935 36.1833 34.5027 35.7807 34.558 35.3318C34.7141 34.0567 35.3815 32.9836 36.2092 32.3152C36.5224 32.2879 36.8183 32.256 37.0968 32.2194C38.3069 32.0615 39.4558 31.9244 41.9722 32.5991C44.4885 33.2738 45.404 33.9738 46.3841 34.7095C46.6157 34.8829 46.845 35.065 47.1049 35.2367C47.4877 36.2297 47.5381 37.4952 47.0275 38.6753ZM50.6195 34.9177C47.1606 33.9903 47.624 32.2597 42.4356 30.8685C37.2472 29.4774 36.7838 31.208 33.3248 30.2805C29.8659 29.3531 28.5998 27.1588 29.5266 23.6975C32.3071 13.3138 42.4688 3.05439 49.3867 4.90926C56.3046 6.76413 59.9786 20.7333 57.1981 31.117C56.2713 34.5783 54.0784 35.8452 50.6195 34.9177Z" fill="#1E2624"></path><path d="M17.0095 4.3C22.381 4.3 24.1714 6.09166 24.1714 11.4667V22.2167C24.1714 29.3833 20.5905 32.9667 13.4286 32.9667C8.05714 32.9667 1.79048 29.3833 1.79048 23.1125C1.79048 21.3208 2.68571 18.6333 6.26667 18.6333C8.95238 18.6333 9.84762 17.7375 9.84762 15.05V11.4667C9.84762 6.09166 11.6381 4.3 17.0095 4.3ZM17.0095 2.50833C13.7061 2.50833 11.5933 3.15333 10.152 4.60458C8.70171 6.04687 8.05714 8.16104 8.05714 11.4667V15.05C8.05714 16.2594 7.84229 16.5371 7.79752 16.5819C7.75276 16.6267 7.47524 16.8417 6.26667 16.8417C1.93371 16.8417 0 19.995 0 23.1125C0 26.5435 1.60248 29.6342 4.52095 31.82C7.00971 33.6833 10.2505 34.7583 13.4286 34.7583C17.484 34.7583 20.6173 33.6744 22.748 31.5423C24.8787 29.4102 25.9619 26.2748 25.9619 22.2167V11.4667C25.9619 8.16104 25.3173 6.04687 23.867 4.60458C22.4257 3.15333 20.313 2.50833 17.0095 2.50833Z" fill="#1E2624"></path></svg>