<svg viewBox="0 0 100 100" fill="none" xmlns="http://www.w3.org/2000/svg">
<path fill-rule="evenodd" clip-rule="evenodd" d="M20.8847 11L47.35 31.9886V31.9838V11.0484H52.5018V32.0825L79.0856 11V34.9301H90V69.4471H79.1191V90.7557L52.5018 70.6266V90.9868H47.35V70.9585L20.9147 91V69.4471H10V34.9301H20.8847V11ZM43.4662 39.3104H15.1517V65.0668H20.9082V56.9423L43.4662 39.3104ZM26.0662 58.8858V81.2258L47.35 65.0899V42.2458L26.0662 58.8858ZM52.65 64.8765V42.2243L73.94 58.8653V69.4471H73.9674V80.9977L52.65 64.8765ZM79.1191 65.0668H84.8482V39.3104H56.7447L79.1191 56.7598V65.0668ZM73.9338 34.9301V21.0755L56.4638 34.9301H73.9338ZM43.5062 34.9301H26.0365V21.0755L43.5062 34.9301Z" fill="#20B8CD"/>
</svg>
