<svg viewBox="0 0 100 100" fill="none" xmlns="http://www.w3.org/2000/svg">
<path d="M15.898 85.3245L13.0034 15.1638C12.9078 12.8466 14.8609 10.8829 17.405 10.7383L83.0088 7.00847C85.5985 6.86124 87.829 8.65151 87.9906 11.0071C87.9967 11.0959 88 11.1848 88 11.2737V87.7266C88 90.0866 85.8966 92 83.3017 92C83.2316 92 83.1616 91.9987 83.091 91.9958L20.3819 89.4339C17.9397 89.334 15.9897 87.5469 15.898 85.3245Z" fill="#FF4785"/>
<path fill-rule="evenodd" clip-rule="evenodd" d="M77.1741 7.30096L67.5434 7.81259L67.0734 17.4138C67.0664 17.5614 67.1198 17.7065 67.2249 17.8242C67.4746 18.1038 67.9436 18.1585 68.2725 17.9464L72.66 15.1173L76.3658 17.5988C76.5048 17.6918 76.6778 17.7399 76.8547 17.7347C77.2673 17.7225 77.5903 17.4282 77.5758 17.0775L77.1741 7.30096ZM69.6783 39.4523C67.9151 40.6164 54.7826 41.4107 54.7826 39.7535C55.0601 33.4299 51.7294 33.1527 49.879 33.1527C48.1211 33.1527 45.1605 33.6043 45.1605 36.992C45.1605 40.4441 49.4871 42.393 54.5655 44.6805C61.7799 47.9301 70.5106 51.8631 70.5106 61.7594C70.5106 71.2448 61.444 76.4843 49.879 76.4843C37.944 76.4843 27.5142 72.38 28.6921 58.1503C29.1547 56.4796 44.3278 56.8765 44.3278 58.1503C44.1428 64.0223 45.7157 65.7493 49.694 65.7493C52.7471 65.7493 54.1349 64.3188 54.1349 61.9098C54.1349 58.2642 49.6269 56.1128 44.4411 53.6381C37.4193 50.2869 29.1547 46.343 29.1547 37.2931C29.1547 28.2594 36.4637 22.2369 49.5089 22.2369C62.5543 22.2369 69.6783 28.1671 69.6783 39.4523Z" fill="white"/>
</svg>
