<svg viewBox="0 0 100 100" fill="none" xmlns="http://www.w3.org/2000/svg">
<path fill-rule="evenodd" clip-rule="evenodd" d="M50.0008 18C39.3332 18 32.6677 25.1116 29.9996 39.3347C34.0002 32.2232 38.6669 29.5568 44 31.3337C47.0427 32.3472 49.2185 35.2911 51.6248 38.5504C55.547 43.8578 60.0868 50 70.0004 50C80.6664 50 87.3335 42.8884 90 28.6674C86.001 35.7789 81.3342 38.4453 76.0012 36.6663C72.9569 35.6528 70.7811 32.7089 68.3748 29.4517C64.4526 24.1401 59.9144 18 50.0008 18ZM29.9996 50C19.3336 50 12.6665 57.1116 10 71.3347C14.0005 64.2232 18.6673 61.5568 23.9988 63.3337C27.0431 64.3472 29.2189 67.2911 31.6252 70.5504C35.5474 75.8578 40.0856 82 50.0008 82C60.6668 82 67.3339 74.8905 70.0004 60.6674C65.9998 67.7789 61.3331 70.4453 56 68.6684C52.9573 67.6528 50.7815 64.7089 48.3752 61.4517C44.453 56.1443 39.9132 50 29.9996 50Z" fill="#38BDF8"/>
</svg>
